<?xml version="1.0" encoding="UTF-8" standalone="no"?>
<!DOCTYPE svg PUBLIC "-//W3C//DTD SVG 1.1//EN" "http://www.w3.org/Graphics/SVG/1.1/DTD/svg11.dtd">
<svg xmlns="http://www.w3.org/2000/svg" version="1.1" viewBox="0.00 0.00 1024.00 1024.00">
<path fill="#e0f9ee" fill-opacity="0.992" d="
  M 258.65 471.64
  Q 262.55 481.22 262.59 490.99
  Q 262.68 510.82 251.80 525.07
  Q 251.32 525.71 248.40 529.48
  Q 246.94 531.37 244.69 533.62
  Q 188.26 590.03 180.76 597.75
  Q 172.23 606.52 167.42 609.27
  Q 159.53 613.77 151.98 616.03
  Q 144.22 618.36 135.32 618.05
  Q 112.64 617.26 96.17 600.83
  Q 72.21 576.94 52.83 557.67
  Q 30.53 535.51 22.05 526.24
  C 15.02 518.57 11.12 507.03 10.59 496.00
  Q 9.46 472.38 25.00 454.70
  Q 31.09 447.77 41.26 438.00
  C 61.37 418.67 84.10 394.89 97.27 382.58
  Q 103.70 376.57 112.79 372.41
  Q 120.55 368.85 130.84 368.07
  Q 158.18 365.98 177.93 385.08
  Q 192.40 399.07 242.52 448.98
  C 249.59 456.02 255.07 462.87 258.65 471.64
  Z
  M 71.63 421.92
  C 73.10 421.93 74.29 421.29 76.14 421.12
  Q 97.04 419.20 114.36 431.41
  C 116.29 432.77 119.55 435.24 121.72 437.37
  Q 148.62 463.77 177.96 492.96
  A 0.87 0.87 0.0 0 0 179.16 492.98
  Q 187.89 484.98 195.26 476.06
  Q 205.35 463.87 206.56 447.52
  Q 207.39 436.23 201.52 424.55
  Q 198.82 419.17 190.69 411.11
  Q 178.91 399.42 174.66 395.16
  Q 172.82 393.32 171.53 392.32
  C 168.51 389.96 166.03 387.44 162.93 385.59
  Q 143.02 373.72 121.53 380.12
  C 112.91 382.69 106.69 386.97 100.31 393.31
  Q 79.75 413.75 71.51 421.63
  A 0.17 0.17 0.0 0 0 71.63 421.92
  Z
  M 58.62 548.72
  Q 56.70 538.65 59.54 528.71
  C 62.25 519.25 67.66 511.17 74.83 503.83
  Q 105.15 472.87 124.08 454.36
  A 0.60 0.60 0.0 0 0 124.09 453.51
  C 117.64 446.86 111.91 441.15 104.16 436.82
  Q 85.78 426.54 65.14 434.03
  C 57.26 436.89 50.30 442.51 44.47 448.48
  Q 34.69 458.49 32.57 461.07
  Q 23.67 471.90 21.43 482.90
  Q 16.45 507.41 34.56 525.72
  C 44.09 535.35 48.90 540.41 53.38 544.55
  Q 55.77 546.76 57.70 549.15
  A 0.52 0.52 0.0 0 0 58.62 548.72
  Z
  M 216.10 437.01
  Q 218.76 460.43 205.62 479.17
  C 203.13 482.72 199.31 486.82 196.34 489.84
  Q 169.89 516.69 146.31 539.90
  A 0.59 0.58 46.8 0 0 146.29 540.71
  Q 151.20 546.07 155.79 550.22
  Q 163.11 556.85 173.53 560.27
  C 188.26 565.10 204.29 560.44 215.25 549.26
  Q 217.26 547.21 238.03 526.05
  Q 246.95 516.96 250.31 506.34
  Q 256.64 486.29 245.75 468.35
  C 243.56 464.74 240.00 460.82 238.18 458.90
  Q 229.16 449.41 216.47 436.83
  A 0.22 0.22 0.0 0 0 216.10 437.01
  Z
  M 171.6041 500.8390
  A 0.46 0.46 0.0 0 0 171.6018 500.1885
  L 132.0787 460.9404
  A 0.46 0.46 0.0 0 0 131.4282 460.9426
  L 99.1559 493.4410
  A 0.46 0.46 0.0 0 0 99.1582 494.0915
  L 138.6813 533.3396
  A 0.46 0.46 0.0 0 0 139.3318 533.3374
  L 171.6041 500.8390
  Z
  M 193.18 570.74
  Q 187.06 572.41 180.89 571.54
  C 172.34 570.34 164.40 568.07 157.55 563.69
  Q 150.16 558.96 143.76 552.37
  C 126.75 534.85 109.40 517.87 92.46 500.97
  A 0.57 0.56 -43.9 0 0 91.68 500.96
  Q 86.60 505.67 80.78 511.99
  Q 74.57 518.72 72.12 523.65
  C 65.60 536.77 65.76 551.31 73.40 563.98
  A 4.68 4.61 7.7 0 0 74.12 564.91
  C 75.87 566.65 77.93 569.25 79.83 571.10
  Q 91.67 582.64 96.69 587.69
  Q 104.40 595.44 107.93 598.12
  C 127.11 612.63 153.14 610.77 170.35 594.09
  Q 174.22 590.35 193.36 571.06
  A 0.19 0.19 0.0 0 0 193.18 570.74
  Z"
/>
<path fill="#e0f9ee" fill-opacity="0.992" d="
  M 581.29 465.98
  Q 573.03 466.01 540.27 466.04
  C 536.33 466.05 533.35 462.54 535.11 458.64
  C 536.42 455.74 538.06 455.10 541.44 455.11
  Q 578.33 455.24 585.27 455.01
  C 590.86 454.83 593.03 458.31 592.89 463.64
  Q 592.61 474.72 589.37 484.87
  C 583.96 501.76 571.28 516.54 554.43 522.66
  Q 547.75 525.08 539.81 525.45
  Q 516.66 526.52 498.07 512.01
  Q 475.55 494.45 473.13 466.01
  Q 470.84 439.07 487.54 419.21
  Q 502.85 400.99 526.15 396.46
  C 546.12 392.57 566.43 396.92 582.04 410.44
  A 2.54 2.51 -71.9 0 1 582.92 412.20
  Q 583.26 417.01 578.50 418.70
  A 1.63 1.60 -44.0 0 1 577.41 418.69
  L 574.51 417.63
  A 0.63 0.50 65.9 0 1 574.32 417.53
  Q 557.06 404.48 535.29 406.07
  Q 515.83 407.49 501.50 420.22
  C 489.25 431.11 483.12 446.56 483.78 462.71
  C 484.84 488.77 504.10 511.24 530.78 514.55
  C 542.22 515.97 554.35 512.56 562.80 505.51
  Q 579.86 491.31 581.96 466.70
  A 0.67 0.66 -88.0 0 0 581.29 465.98
  Z"
/>
<path fill="#e0f9ee" fill-opacity="0.992" d="
  M 993.4840 455.3882
  A 66.50 65.35 -4.4 0 1 932.1936 525.6474
  A 66.50 65.35 -4.4 0 1 860.8760 465.5918
  A 66.50 65.35 -4.4 0 1 922.1664 395.3326
  A 66.50 65.35 -4.4 0 1 993.4840 455.3882
  Z
  M 982.2721 453.5790
  A 55.54 54.61 -7.2 0 0 920.3256 406.3606
  A 55.54 54.61 -7.2 0 0 872.0679 467.5010
  A 55.54 54.61 -7.2 0 0 934.0144 514.7194
  A 55.54 54.61 -7.2 0 0 982.2721 453.5790
  Z"
/>
<path fill="#e0f9ee" fill-opacity="0.992" d="
  M 396.93 396.15
  Q 401.25 396.16 403.54 401.23
  Q 438.77 478.98 453.84 512.54
  C 455.60 516.44 457.87 520.93 452.99 523.50
  Q 449.40 525.38 446.48 521.92
  A 2.43 2.32 13.9 0 1 446.15 521.40
  Q 420.07 463.14 397.37 412.85
  Q 397.22 412.53 396.89 412.53
  Q 396.57 412.53 396.42 412.85
  Q 373.53 463.05 347.23 521.21
  A 2.43 2.32 -13.7 0 1 346.90 521.73
  Q 343.97 525.18 340.38 523.29
  C 335.51 520.70 337.80 516.22 339.57 512.33
  Q 354.77 478.82 390.29 401.20
  Q 392.60 396.14 396.93 396.15
  Z"
/>
<path fill="#e0f9ee" fill-opacity="0.992" d="
  M 670.70 471.37
  A 0.43 0.43 0.0 0 0 670.40 472.10
  Q 685.90 487.62 711.55 512.96
  Q 713.98 515.36 714.81 517.46
  A 2.03 2.01 -49.1 0 1 714.89 518.67
  C 713.81 523.00 708.86 525.17 705.45 521.79
  Q 675.10 491.62 652.18 468.59
  Q 650.75 467.15 651.21 464.88
  C 652.16 460.13 655.43 460.67 659.98 460.69
  Q 666.68 460.72 674.30 460.60
  C 686.80 460.40 698.29 455.03 703.41 443.31
  Q 705.80 437.84 705.25 431.61
  Q 703.94 416.73 690.01 410.24
  A 0.82 0.53 -12.0 0 0 689.88 410.19
  L 681.46 408.21
  A 9.15 8.80 50.7 0 0 679.36 407.96
  L 633.49 407.96
  A 0.51 0.50 90.0 0 0 632.99 408.47
  L 632.99 520.31
  A 1.15 1.09 -21.9 0 1 632.61 521.14
  Q 628.08 525.18 623.28 521.59
  A 3.20 3.19 18.6 0 1 622.01 519.04
  L 622.01 402.23
  A 1.91 1.91 0.0 0 1 622.22 401.36
  Q 624.47 397.06 628.35 397.06
  Q 667.01 397.07 676.71 397.03
  Q 684.25 396.99 689.21 398.43
  Q 707.23 403.65 713.85 420.58
  Q 716.26 426.74 716.17 433.74
  C 716.09 440.39 715.10 445.22 711.88 450.95
  C 703.29 466.25 687.80 471.30 670.70 471.37
  Z"
/>
<rect fill="#e0f9ee" fill-opacity="0.992" x="747.85" y="397.05" width="89.84" height="10.94" rx="5.37"/>
<rect fill="#e0f9ee" fill-opacity="0.992" x="747.87" y="455.05" width="73.10" height="10.90" rx="5.35"/>
<rect fill="#e0f9ee" fill-opacity="0.992" x="-44.88" y="-5.31" transform="translate(792.90,517.83) rotate(0.1)" width="89.76" height="10.62" rx="5.24"/>
<path fill="#e0f9ee" fill-opacity="0.992" d="
  M 348.56 565.24
  Q 346.47 561.78 342.72 562.89
  A 1.61 1.56 -76.9 0 0 341.93 563.40
  Q 341.08 564.41 341.07 564.44
  A 2.62 2.62 0.0 0 0 342.72 567.51
  Q 348.16 569.50 349.11 569.90
  C 352.22 571.23 354.38 574.62 353.76 577.99
  C 352.38 585.34 343.93 586.48 338.32 583.51
  Q 336.90 582.76 335.35 579.79
  A 1.83 1.83 0.0 0 1 336.21 577.28
  L 338.27 576.34
  A 1.52 1.51 69.9 0 1 340.35 577.31
  Q 341.43 581.13 346.30 579.93
  A 1.62 1.56 -75.8 0 0 347.14 579.41
  Q 348.22 578.11 348.33 577.06
  A 2.63 2.33 13.7 0 0 346.59 574.55
  Q 344.31 573.73 340.71 572.34
  C 333.83 569.70 333.71 560.48 340.90 558.19
  Q 345.72 556.66 350.10 558.95
  A 2.76 2.67 -5.8 0 1 350.85 559.54
  Q 352.14 560.99 353.03 563.28
  A 0.93 0.93 0.0 0 1 352.49 564.48
  L 349.52 565.58
  A 0.80 0.79 64.4 0 1 348.56 565.24
  Z"
/>
<path fill="#e0f9ee" fill-opacity="0.992" d="
  M 557.86 566.23
  A 0.85 0.85 0.0 0 1 556.91 566.00
  C 552.82 561.29 546.43 562.00 543.94 567.72
  C 541.27 573.82 546.05 581.65 553.39 579.75
  Q 554.75 579.39 557.65 576.82
  A 1.19 1.18 29.8 0 1 558.67 576.55
  Q 560.50 576.93 561.64 578.16
  A 0.81 0.80 39.9 0 1 561.73 579.14
  Q 558.36 584.32 552.82 584.94
  Q 547.82 585.50 544.17 583.20
  C 535.91 577.99 535.75 564.73 544.16 559.59
  C 550.09 555.97 558.11 557.57 561.42 563.88
  A 0.79 0.79 0.0 0 1 561.02 564.98
  L 557.86 566.23
  Z"
/>
<path fill="#e0f9ee" fill-opacity="0.992" d="
  M 828.36 566.11
  C 824.35 561.28 817.91 561.86 815.28 567.55
  C 812.47 573.63 817.10 581.60 824.52 579.85
  Q 825.90 579.52 828.87 577.00
  A 1.20 1.18 31.0 0 1 829.90 576.75
  Q 831.73 577.17 832.85 578.43
  A 0.81 0.81 0.0 0 1 832.92 579.42
  Q 829.42 584.56 823.84 585.06
  Q 818.80 585.51 815.18 583.12
  C 806.99 577.71 807.11 564.37 815.68 559.39
  C 821.72 555.88 829.75 557.66 832.94 564.07
  A 0.79 0.79 0.0 0 1 832.51 565.17
  L 829.31 566.36
  A 0.86 0.85 59.5 0 1 828.36 566.11
  Z"
/>
<path fill="#e0f9ee" fill-opacity="0.992" d="
  M 864.77 576.70
  A 0.65 0.64 -24.5 0 1 865.39 576.93
  L 867.27 579.26
  A 1.52 1.49 -10.0 0 0 867.98 579.75
  Q 872.41 581.14 873.89 577.52
  A 1.09 1.09 0.0 0 0 873.81 576.52
  C 872.19 573.88 868.58 573.22 865.86 571.97
  Q 859.57 569.09 862.17 562.14
  C 864.24 556.63 871.93 556.83 876.07 559.27
  A 0.75 0.71 87.2 0 1 876.34 559.52
  L 878.22 562.33
  A 1.58 1.57 61.0 0 1 877.56 564.64
  L 875.39 565.63
  A 0.97 0.96 -40.9 0 1 874.47 565.57
  C 873.35 564.86 873.27 563.64 872.14 563.04
  Q 870.00 561.89 868.38 562.82
  C 866.10 564.11 866.05 566.55 868.67 567.49
  C 873.45 569.19 879.05 570.50 879.11 576.36
  C 879.18 581.60 875.72 584.63 870.73 585.01
  Q 863.96 585.54 860.85 579.63
  A 1.71 1.71 0.0 0 1 862.06 577.15
  L 864.77 576.70
  Z"
/>
<path fill="#e0f9ee" fill-opacity="0.992" d="
  M 896.68 577.86
  A 2.21 2.20 -67.5 0 0 895.51 575.03
  L 887.42 571.51
  A 1.10 1.02 76.9 0 1 887.08 571.28
  Q 884.30 568.41 884.22 565.89
  C 883.90 555.68 899.90 554.52 901.12 563.73
  A 0.81 0.79 -18.6 0 1 900.70 564.55
  Q 898.64 565.67 897.09 565.39
  A 1.21 1.21 0.0 0 1 896.28 564.83
  Q 894.57 562.03 891.76 562.73
  Q 889.70 563.25 889.66 564.73
  C 889.55 569.46 901.52 567.83 902.04 575.79
  Q 902.35 580.66 899.04 583.46
  A 3.89 3.76 -75.7 0 1 898.10 584.04
  Q 893.16 586.17 888.20 584.04
  C 886.10 583.14 884.65 581.21 883.63 579.08
  A 1.18 1.18 0.0 0 1 884.28 577.47
  L 886.65 576.59
  A 1.40 1.39 63.1 0 1 888.29 577.13
  L 889.79 579.37
  A 1.23 1.19 78.5 0 0 890.56 579.90
  Q 895.49 580.89 896.68 577.86
  Z"
/>
<path fill="#e0f9ee" fill-opacity="0.992" d="
  M 497.54 576.96
  L 499.42 579.29
  A 1.52 1.49 -9.9 0 0 500.13 579.78
  Q 504.55 581.18 506.04 577.56
  A 1.09 1.09 0.0 0 0 505.96 576.56
  C 504.34 573.92 500.73 573.25 498.01 572.00
  Q 491.72 569.11 494.33 562.17
  C 496.41 556.66 504.10 556.87 508.24 559.31
  A 0.75 0.71 87.2 0 1 508.50 559.56
  L 510.38 562.37
  A 1.58 1.57 61.1 0 1 509.72 564.68
  L 507.55 565.67
  A 0.97 0.96 -40.8 0 1 506.63 565.61
  C 505.51 564.90 505.43 563.68 504.30 563.08
  Q 502.16 561.92 500.54 562.85
  C 498.26 564.14 498.21 566.58 500.83 567.52
  C 505.61 569.23 511.20 570.54 511.26 576.40
  C 511.32 581.64 507.86 584.67 502.87 585.05
  Q 496.10 585.57 492.99 579.66
  A 1.71 1.71 0.0 0 1 494.21 577.18
  L 496.92 576.73
  A 0.65 0.64 -24.5 0 1 497.54 576.96
  Z"
/>
<path fill="#e0f9ee" fill-opacity="0.992" d="
  M 679.16 584.49
  L 676.89 578.36
  A 0.73 0.73 0.0 0 0 676.20 577.88
  L 669.08 577.88
  A 0.73 0.73 0.0 0 0 668.40 578.36
  L 666.17 584.47
  A 0.73 0.73 0.0 0 1 665.49 584.95
  L 661.39 584.95
  A 0.73 0.73 0.0 0 1 660.71 583.97
  L 670.03 558.40
  A 0.73 0.73 0.0 0 1 670.71 557.92
  L 674.68 557.92
  A 0.73 0.73 0.0 0 1 675.37 558.40
  L 684.86 583.99
  A 0.73 0.73 0.0 0 1 684.17 584.97
  L 679.85 584.97
  A 0.73 0.73 0.0 0 1 679.16 584.49
  Z
  M 670.68 572.95
  Q 672.38 572.28 674.06 572.92
  A 0.69 0.69 0.0 0 0 674.93 571.99
  L 672.83 567.37
  A 0.34 0.34 0.0 0 0 672.18 567.47
  L 671.92 569.46
  A 0.71 0.62 -32.0 0 1 671.84 569.73
  L 670.27 572.47
  A 0.34 0.33 -85.6 0 0 670.68 572.95
  Z"
/>
<path fill="#e0f9ee" fill-opacity="0.992" d="
  M 800.93 566.28
  A 0.85 0.85 0.0 0 1 799.98 566.04
  C 795.91 561.29 789.51 561.96 786.97 567.67
  C 784.26 573.78 789.00 581.65 796.37 579.79
  Q 797.74 579.44 800.66 576.89
  A 1.19 1.18 30.2 0 1 801.68 576.62
  Q 803.51 577.01 804.65 578.25
  A 0.81 0.80 40.2 0 1 804.73 579.24
  Q 801.32 584.41 795.77 585.00
  Q 790.75 585.52 787.11 583.19
  C 778.86 577.93 778.78 564.63 787.25 559.54
  C 793.21 555.95 801.24 557.60 804.52 563.94
  A 0.79 0.79 0.0 0 1 804.11 565.04
  L 800.93 566.28
  Z"
/>
<rect fill="#e0f9ee" fill-opacity="0.992" x="359.39" y="558.07" width="5.64" height="26.90" rx="0.33"/>
<path fill="#e0f9ee" fill-opacity="0.992" d="
  M 390.68 569.03
  Q 390.65 569.04 390.35 569.83
  C 389.22 572.74 387.10 578.84 385.24 579.90
  A 1.99 1.82 61.0 0 1 382.64 579.03
  Q 380.80 575.58 379.83 574.13
  C 378.96 572.84 378.87 570.97 377.65 569.55
  A 0.19 0.19 0.0 0 0 377.32 569.67
  L 377.32 584.32
  A 0.66 0.66 0.0 0 1 376.66 584.98
  L 372.57 584.98
  A 0.53 0.53 0.0 0 1 372.04 584.45
  L 372.04 558.59
  A 0.54 0.54 0.0 0 1 372.58 558.05
  L 377.46 558.05
  A 1.23 1.22 77.5 0 1 378.57 558.76
  L 384.23 571.20
  A 0.27 0.27 0.0 0 0 384.72 571.21
  L 390.90 558.65
  A 1.19 1.17 -76.4 0 1 391.95 558.00
  L 396.37 558.00
  A 0.61 0.61 0.0 0 1 396.98 558.61
  L 396.98 584.71
  A 0.26 0.25 -0.0 0 1 396.72 584.96
  L 391.26 584.96
  A 0.19 0.18 -90.0 0 1 391.08 584.77
  L 391.61 569.66
  A 0.67 0.66 78.9 0 0 390.68 569.03
  Z"
/>
<path fill="#e0f9ee" fill-opacity="0.992" d="
  M 409.98 576.42
  L 409.98 584.53
  A 0.44 0.43 90.0 0 1 409.55 584.97
  L 404.95 584.97
  A 0.35 0.35 0.0 0 1 404.60 584.62
  L 404.60 558.78
  A 0.80 0.80 0.0 0 1 405.41 557.98
  L 415.57 558.09
  A 1.08 0.94 49.1 0 1 415.85 558.13
  Q 424.55 560.85 422.65 569.19
  Q 421.63 573.65 417.25 575.33
  C 415.22 576.10 412.97 575.87 410.69 575.74
  A 0.68 0.67 -88.4 0 0 409.98 576.42
  Z
  M 409.94 563.41
  L 409.96 570.63
  A 0.42 0.42 0.0 0 0 410.38 571.05
  L 412.86 571.04
  A 4.78 3.78 -0.2 0 0 417.63 567.25
  L 417.63 566.75
  A 4.78 3.78 -0.2 0 0 412.84 562.98
  L 410.36 562.99
  A 0.42 0.42 0.0 0 0 409.94 563.41
  Z"
/>
<path fill="#e0f9ee" fill-opacity="0.992" d="
  M 428.18 558.81
  A 0.85 0.85 0.0 0 1 429.04 557.97
  L 432.59 558.03
  A 1.00 1.00 0.0 0 1 433.57 559.05
  L 433.37 579.28
  A 0.74 0.74 0.0 0 0 434.11 580.03
  L 442.62 580.02
  A 0.91 0.90 89.9 0 1 443.53 580.93
  L 443.54 584.24
  A 0.75 0.74 -89.9 0 1 442.79 584.99
  L 428.52 584.93
  A 0.53 0.53 0.0 0 1 427.99 584.39
  L 428.18 558.81
  Z"
/>
<path fill="#e0f9ee" fill-opacity="0.992" d="
  M 448.91 571.51
  Q 448.92 565.93 448.87 558.58
  A 0.44 0.44 0.0 0 1 449.30 558.14
  L 464.49 558.08
  A 0.69 0.68 -0.2 0 1 465.18 558.76
  L 465.19 562.36
  A 0.79 0.79 0.0 0 1 464.41 563.15
  L 454.89 563.18
  A 0.58 0.58 0.0 0 0 454.31 563.76
  L 454.33 568.49
  A 0.56 0.56 0.0 0 0 454.89 569.04
  L 462.85 569.02
  A 0.54 0.54 0.0 0 1 463.38 569.54
  Q 463.39 569.77 463.39 571.53
  Q 463.38 573.28 463.38 573.51
  A 0.54 0.54 0.0 0 1 462.84 574.04
  L 454.88 573.99
  A 0.56 0.56 0.0 0 0 454.32 574.55
  L 454.29 579.27
  A 0.58 0.58 0.0 0 0 454.87 579.85
  L 464.39 579.91
  A 0.79 0.79 0.0 0 1 465.17 580.70
  L 465.15 584.30
  A 0.69 0.68 0.3 0 1 464.46 584.98
  L 449.27 584.88
  A 0.44 0.44 0.0 0 1 448.84 584.44
  Q 448.91 577.09 448.91 571.51
  Z"
/>
<path fill="#e0f9ee" fill-opacity="0.992" d="
  M 531.71 571.50
  Q 531.72 573.27 531.72 573.50
  A 0.54 0.54 0.0 0 1 531.18 574.03
  L 523.18 574.03
  A 0.56 0.56 0.0 0 0 522.62 574.59
  L 522.62 579.34
  A 0.58 0.58 0.0 0 0 523.20 579.92
  L 532.77 579.92
  A 0.79 0.79 0.0 0 1 533.56 580.71
  L 533.56 584.33
  A 0.69 0.68 0.0 0 1 532.87 585.01
  L 517.61 585.01
  A 0.44 0.44 0.0 0 1 517.17 584.57
  Q 517.19 577.18 517.17 571.57
  Q 517.14 565.97 517.05 558.58
  A 0.44 0.44 0.0 0 1 517.48 558.13
  L 532.74 557.99
  A 0.69 0.68 -0.5 0 1 533.44 558.66
  L 533.47 562.28
  A 0.79 0.79 0.0 0 1 532.69 563.08
  L 523.12 563.17
  A 0.58 0.58 0.0 0 0 522.55 563.75
  L 522.59 568.50
  A 0.56 0.56 0.0 0 0 523.16 569.06
  L 531.16 568.98
  A 0.54 0.54 0.0 0 1 531.70 569.51
  Q 531.70 569.74 531.71 571.50
  Z"
/>
<path fill="#e0f9ee" fill-opacity="0.992" d="
  M 577.20 580.15
  C 580.16 580.13 581.89 578.07 581.99 575.23
  Q 582.23 568.74 581.99 559.07
  A 1.09 1.09 0.0 0 1 583.08 557.95
  L 586.43 557.95
  A 1.08 1.08 0.0 0 1 587.51 559.03
  Q 587.59 571.94 587.35 575.48
  C 586.93 581.63 583.25 585.00 577.23 585.03
  C 571.21 585.07 567.48 581.75 566.99 575.61
  Q 566.71 572.07 566.63 559.16
  A 1.08 1.08 0.0 0 1 567.70 558.06
  L 571.05 558.02
  A 1.09 1.09 0.0 0 1 572.15 559.13
  Q 572.03 568.80 572.35 575.29
  C 572.49 578.13 574.23 580.17 577.20 580.15
  Z"
/>
<path fill="#e0f9ee" fill-opacity="0.992" d="
  M 615.00 584.79
  A 0.09 0.09 0.0 0 1 614.92 584.93
  L 608.80 584.93
  A 0.51 0.50 73.8 0 1 608.37 584.69
  Q 606.63 581.71 603.79 576.70
  Q 603.19 575.64 601.80 574.81
  A 0.97 0.97 0.0 0 0 600.33 575.64
  L 600.33 584.28
  A 0.70 0.70 0.0 0 1 599.63 584.98
  L 595.55 584.98
  A 0.85 0.85 0.0 0 1 594.70 584.13
  L 594.70 558.68
  A 0.60 0.59 -0.5 0 1 595.29 558.09
  Q 597.41 558.07 602.52 557.97
  C 606.09 557.90 609.31 558.47 611.48 561.22
  C 614.70 565.32 613.77 571.65 608.50 573.92
  A 0.51 0.51 0.0 0 0 608.27 574.68
  L 615.00 584.79
  Z
  M 600.23 563.32
  L 600.21 570.30
  A 0.48 0.48 0.0 0 0 600.69 570.78
  L 602.83 570.79
  A 5.00 3.79 0.2 0 0 607.84 567.01
  L 607.84 566.65
  A 5.00 3.79 0.2 0 0 602.85 562.85
  L 600.71 562.84
  A 0.48 0.48 0.0 0 0 600.23 563.32
  Z"
/>
<path fill="#e0f9ee" fill-opacity="0.992" d="
  M 633.52 569.09
  A 0.55 0.55 0.0 0 1 634.07 569.64
  L 634.07 573.43
  A 0.67 0.67 0.0 0 1 633.40 574.10
  L 625.80 574.10
  A 0.75 0.75 0.0 0 0 625.05 574.85
  L 625.05 579.33
  A 0.66 0.66 0.0 0 0 625.71 579.99
  L 634.46 579.99
  A 1.57 1.56 90.0 0 1 636.02 581.56
  L 636.02 582.86
  A 2.10 2.10 0.0 0 1 633.92 584.96
  L 620.63 584.96
  A 0.84 0.83 0.0 0 1 619.79 584.13
  L 619.79 558.54
  A 0.51 0.50 -90.0 0 1 620.29 558.03
  L 635.01 558.03
  A 1.04 1.04 0.0 0 1 636.05 559.07
  L 636.05 562.11
  A 1.08 1.08 0.0 0 1 634.97 563.19
  L 625.55 563.19
  A 0.51 0.50 -90.0 0 0 625.05 563.70
  L 625.05 568.53
  A 0.56 0.55 -90.0 0 0 625.60 569.09
  L 633.52 569.09
  Z"
/>
<path fill="#e0f9ee" fill-opacity="0.992" d="
  M 697.90 572.80
  Q 697.03 571.41 695.80 569.90
  A 0.43 0.42 25.5 0 0 695.04 570.17
  L 695.04 584.32
  A 0.64 0.63 90.0 0 1 694.41 584.96
  L 690.44 584.96
  A 0.57 0.56 0.0 0 1 689.87 584.40
  L 689.87 558.63
  A 0.64 0.63 -0.0 0 1 690.51 558.00
  L 694.57 558.00
  A 0.42 0.42 0.0 0 1 694.93 558.19
  Q 701.17 568.27 702.32 570.12
  Q 703.18 571.51 704.41 573.03
  A 0.43 0.42 25.5 0 0 705.17 572.76
  L 705.17 558.61
  A 0.64 0.63 -90.0 0 1 705.80 557.97
  L 709.77 557.97
  A 0.57 0.56 -0.0 0 1 710.34 558.53
  L 710.34 584.30
  A 0.64 0.63 0.0 0 1 709.70 584.93
  L 705.64 584.93
  A 0.42 0.42 0.0 0 1 705.29 584.73
  Q 699.04 574.65 697.90 572.80
  Z"
/>
<path fill="#e0f9ee" fill-opacity="0.992" d="
  M 717.71 558.39
  A 0.49 0.49 0.0 0 1 718.20 557.90
  L 726.51 557.92
  A 12.88 12.84 -89.9 0 1 739.33 570.82
  L 739.33 572.06
  A 12.88 12.84 -89.9 0 1 726.47 584.92
  L 718.16 584.90
  A 0.49 0.49 0.0 0 1 717.67 584.41
  L 717.71 558.39
  Z
  M 723.01 563.14
  L 722.87 579.62
  A 0.29 0.29 0.0 0 0 723.16 579.91
  L 725.75 579.94
  A 8.20 7.86 0.5 0 0 734.01 572.15
  L 734.03 570.81
  A 8.20 7.86 0.5 0 0 725.89 562.88
  L 723.30 562.85
  A 0.29 0.29 0.0 0 0 723.01 563.14
  Z"
/>
<path fill="#e0f9ee" fill-opacity="0.992" d="
  M 766.16 557.94
  Q 767.18 557.93 768.08 558.01
  A 0.86 0.85 82.0 0 1 768.82 558.57
  L 778.32 584.19
  A 0.56 0.56 0.0 0 1 777.80 584.94
  L 773.77 584.94
  A 1.23 1.23 0.0 0 1 772.62 584.14
  L 770.44 578.25
  A 0.74 0.74 0.0 0 0 769.71 577.77
  Q 767.27 577.90 766.22 577.90
  Q 765.17 577.90 762.72 577.79
  A 0.74 0.74 0.0 0 0 761.99 578.27
  L 759.85 584.18
  A 1.23 1.23 0.0 0 1 758.70 584.98
  L 754.67 585.01
  A 0.56 0.56 0.0 0 1 754.15 584.26
  L 763.50 558.59
  A 0.86 0.85 -82.3 0 1 764.23 558.02
  Q 765.14 557.94 766.16 557.94
  Z
  M 764.60 573.38
  L 767.71 572.22
  A 0.51 0.50 -15.5 0 0 768.04 571.65
  Q 767.91 570.95 767.32 570.72
  A 0.68 0.68 0.0 0 1 766.90 569.99
  Q 767.13 568.59 766.40 566.97
  A 0.18 0.18 0.0 0 0 766.07 566.98
  L 763.97 572.75
  A 0.49 0.49 0.0 0 0 764.60 573.38
  Z"
/>
<path fill="#e0f9ee" fill-opacity="0.992" d="
  M 839.18 571.61
  Q 839.13 565.99 839.01 558.59
  A 0.44 0.44 0.0 0 1 839.45 558.15
  L 854.72 557.95
  A 0.69 0.68 -0.7 0 1 855.42 558.62
  L 855.47 562.24
  A 0.79 0.79 0.0 0 1 854.69 563.05
  L 845.11 563.17
  A 0.58 0.58 0.0 0 0 844.54 563.76
  L 844.60 568.51
  A 0.56 0.56 0.0 0 0 845.16 569.07
  L 853.17 568.96
  A 0.54 0.54 0.0 0 1 853.72 569.49
  Q 853.72 569.72 853.74 571.48
  Q 853.75 573.25 853.75 573.48
  A 0.54 0.54 0.0 0 1 853.22 574.02
  L 845.21 574.05
  A 0.56 0.56 0.0 0 0 844.65 574.61
  L 844.66 579.36
  A 0.58 0.58 0.0 0 0 845.25 579.94
  L 854.83 579.91
  A 0.79 0.79 0.0 0 1 855.62 580.70
  L 855.63 584.32
  A 0.69 0.68 -0.2 0 1 854.95 585.01
  L 839.67 585.06
  A 0.44 0.44 0.0 0 1 839.23 584.62
  Q 839.22 577.22 839.18 571.61
  Z"
/>
<rect fill="#e0f9ee" fill-opacity="0.992" x="-2.59" y="-13.48" transform="translate(910.51,571.50) rotate(-0.1)" width="5.18" height="26.96" rx="0.46"/>
<path fill="#e0f9ee" fill-opacity="0.992" d="
  M 935.32 570.79
  A 0.29 0.29 0.0 0 0 935.37 571.32
  C 938.49 572.42 940.56 575.88 939.36 578.97
  Q 937.48 583.82 932.63 584.73
  Q 930.57 585.11 921.18 584.94
  A 0.48 0.47 -89.4 0 1 920.72 584.46
  L 920.72 558.63
  A 0.63 0.62 -89.6 0 1 921.35 558.00
  Q 922.72 558.02 929.09 557.93
  Q 935.31 557.85 937.86 561.98
  C 940.01 565.46 938.78 568.90 935.32 570.79
  Z
  M 926.10 563.32
  L 926.14 568.72
  A 0.41 0.41 0.0 0 0 926.56 569.13
  L 929.37 569.10
  A 3.78 2.99 -0.5 0 0 933.12 566.08
  L 933.12 565.84
  A 3.78 2.99 -0.5 0 0 929.31 562.88
  L 926.50 562.91
  A 0.41 0.41 0.0 0 0 926.10 563.32
  Z
  M 926.08 574.09
  L 926.10 579.57
  A 0.53 0.53 0.0 0 0 926.63 580.10
  L 929.59 580.09
  A 4.39 3.15 -0.2 0 0 933.97 576.93
  L 933.97 576.69
  A 4.39 3.15 -0.2 0 0 929.57 573.55
  L 926.61 573.56
  A 0.53 0.53 0.0 0 0 926.08 574.09
  Z"
/>
<path fill="#e0f9ee" fill-opacity="0.992" d="
  M 950.98 558.63
  L 950.98 579.38
  A 0.61 0.61 0.0 0 0 951.59 579.99
  L 960.56 579.99
  A 0.61 0.61 0.0 0 1 961.17 580.60
  L 961.17 584.35
  A 0.61 0.61 0.0 0 1 960.56 584.96
  L 946.23 584.96
  A 0.61 0.61 0.0 0 1 945.62 584.35
  L 945.62 558.63
  A 0.61 0.61 0.0 0 1 946.23 558.02
  L 950.37 558.02
  A 0.61 0.61 0.0 0 1 950.98 558.63
  Z"
/>
<path fill="#e0f9ee" fill-opacity="0.992" d="
  M 966.55 571.57
  Q 966.53 565.96 966.45 558.56
  A 0.44 0.44 0.0 0 1 966.88 558.12
  L 982.15 558.00
  A 0.69 0.68 -0.5 0 1 982.85 558.67
  L 982.88 562.30
  A 0.79 0.79 0.0 0 1 982.10 563.09
  L 972.52 563.17
  A 0.58 0.58 0.0 0 0 971.94 563.75
  L 971.98 568.51
  A 0.56 0.56 0.0 0 0 972.54 569.06
  L 980.55 569.00
  A 0.54 0.54 0.0 0 1 981.09 569.53
  Q 981.10 569.76 981.10 571.52
  Q 981.11 573.29 981.11 573.52
  A 0.54 0.54 0.0 0 1 980.57 574.05
  L 972.56 574.04
  A 0.56 0.56 0.0 0 0 972.00 574.60
  L 971.99 579.36
  A 0.58 0.58 0.0 0 0 972.57 579.94
  L 982.15 579.95
  A 0.79 0.79 0.0 0 1 982.94 580.74
  L 982.93 584.37
  A 0.69 0.68 0.1 0 1 982.24 585.05
  L 966.97 585.02
  A 0.44 0.44 0.0 0 1 966.53 584.58
  Q 966.56 577.18 966.55 571.57
  Z"
/>
<path fill="#e0f9ee" fill-opacity="0.992" d="
  M 638.60 588.69
  L 640.37 581.16
  A 1.49 1.49 0.0 0 1 641.82 580.01
  L 645.46 580.01
  A 0.58 0.58 0.0 0 1 645.98 580.84
  L 641.86 589.20
  A 1.09 1.08 19.6 0 1 640.62 589.78
  L 639.05 589.41
  A 0.60 0.59 -77.1 0 1 638.60 588.69
  Z"
/>
<path fill="#e0f9ee" fill-opacity="0.992" d="
  M 467.05 588.19
  L 469.65 581.06
  A 1.69 1.69 0.0 0 1 471.24 579.94
  L 473.27 579.94
  A 1.16 1.16 0.0 0 1 474.31 581.61
  L 471.19 587.96
  A 3.02 3.02 0.0 0 1 468.48 589.65
  L 468.07 589.65
  A 1.09 1.09 0.0 0 1 467.05 588.19
  Z"
/>
</svg>
